<svg xmlns="http://www.w3.org/2000/svg" width="375" viewBox="0 0 375 375" height="375" version="1.0"><defs><clipPath id="a"><path d="M 156 108.574219 L 222 108.574219 L 222 174 L 156 174 Z M 156 108.574219"/></clipPath><clipPath id="b"><path d="M 72.699219 251 L 302.199219 251 L 302.199219 266.074219 L 72.699219 266.074219 Z M 72.699219 251"/></clipPath><clipPath id="c"><path d="M 242 186 L 302.199219 186 L 302.199219 245 L 242 245 Z M 242 186"/></clipPath><clipPath id="d"><path d="M 72.699219 186 L 138 186 L 138 245 L 72.699219 245 Z M 72.699219 186"/></clipPath></defs><path fill="#F291A3" d="M 187.5 0 C 83.945312 0 0 83.945312 0 187.5 C 0 291.054688 83.945312 375 187.5 375 C 291.054688 375 375 291.054688 375 187.5 C 375 83.945312 291.054688 0 187.5 0"/><g clip-path="url(#a)"><path fill="#FFF" d="M 221.515625 140.792969 C 221.515625 141.847656 221.460938 142.898438 221.359375 143.949219 C 221.253906 145 221.101562 146.042969 220.894531 147.074219 C 220.6875 148.109375 220.429688 149.132812 220.125 150.144531 C 219.816406 151.152344 219.460938 152.144531 219.058594 153.121094 C 218.652344 154.09375 218.203125 155.046875 217.703125 155.976562 C 217.207031 156.90625 216.664062 157.8125 216.074219 158.6875 C 215.488281 159.566406 214.859375 160.414062 214.1875 161.226562 C 213.519531 162.042969 212.808594 162.824219 212.0625 163.570312 C 211.3125 164.316406 210.53125 165.023438 209.714844 165.695312 C 208.898438 166.363281 208.050781 166.992188 207.171875 167.578125 C 206.292969 168.164062 205.386719 168.703125 204.453125 169.203125 C 203.523438 169.699219 202.566406 170.148438 201.589844 170.554688 C 200.613281 170.957031 199.621094 171.3125 198.609375 171.617188 C 197.597656 171.925781 196.574219 172.179688 195.535156 172.386719 C 194.5 172.59375 193.457031 172.746094 192.402344 172.851562 C 191.351562 172.953125 190.296875 173.007812 189.242188 173.007812 C 188.183594 173.007812 187.128906 172.953125 186.078125 172.851562 C 185.027344 172.746094 183.980469 172.59375 182.945312 172.386719 C 181.90625 172.179688 180.882812 171.925781 179.871094 171.617188 C 178.859375 171.3125 177.867188 170.957031 176.890625 170.554688 C 175.914062 170.148438 174.960938 169.699219 174.027344 169.203125 C 173.09375 168.703125 172.191406 168.164062 171.3125 167.578125 C 170.433594 166.992188 169.582031 166.363281 168.765625 165.695312 C 167.949219 165.023438 167.167969 164.316406 166.421875 163.570312 C 165.671875 162.824219 164.964844 162.042969 164.292969 161.226562 C 163.621094 160.414062 162.992188 159.566406 162.40625 158.6875 C 161.820312 157.8125 161.277344 156.90625 160.777344 155.976562 C 160.28125 155.046875 159.828125 154.09375 159.425781 153.121094 C 159.019531 152.144531 158.664062 151.152344 158.355469 150.144531 C 158.050781 149.132812 157.792969 148.109375 157.585938 147.074219 C 157.382812 146.042969 157.226562 145 157.121094 143.949219 C 157.019531 142.898438 156.96875 141.847656 156.96875 140.792969 C 156.96875 139.734375 157.019531 138.683594 157.121094 137.632812 C 157.226562 136.582031 157.382812 135.542969 157.585938 134.507812 C 157.792969 133.472656 158.050781 132.449219 158.355469 131.441406 C 158.664062 130.429688 159.019531 129.4375 159.425781 128.464844 C 159.828125 127.488281 160.28125 126.535156 160.777344 125.605469 C 161.277344 124.675781 161.820312 123.769531 162.40625 122.894531 C 162.992188 122.015625 163.621094 121.171875 164.292969 120.355469 C 164.964844 119.539062 165.671875 118.757812 166.421875 118.011719 C 167.167969 117.265625 167.949219 116.558594 168.765625 115.890625 C 169.582031 115.21875 170.433594 114.59375 171.3125 114.003906 C 172.191406 113.417969 173.09375 112.878906 174.027344 112.378906 C 174.960938 111.882812 175.914062 111.433594 176.890625 111.027344 C 177.867188 110.625 178.859375 110.269531 179.871094 109.964844 C 180.882812 109.65625 181.90625 109.402344 182.945312 109.195312 C 183.980469 108.988281 185.027344 108.835938 186.078125 108.730469 C 187.128906 108.628906 188.183594 108.578125 189.242188 108.578125 C 190.296875 108.578125 191.351562 108.628906 192.402344 108.730469 C 193.457031 108.835938 194.5 108.988281 195.535156 109.195312 C 196.574219 109.402344 197.597656 109.65625 198.609375 109.964844 C 199.621094 110.269531 200.613281 110.625 201.589844 111.027344 C 202.566406 111.433594 203.523438 111.882812 204.453125 112.378906 C 205.386719 112.878906 206.292969 113.417969 207.171875 114.003906 C 208.050781 114.59375 208.898438 115.21875 209.714844 115.890625 C 210.53125 116.558594 211.3125 117.265625 212.0625 118.011719 C 212.808594 118.757812 213.519531 119.539062 214.1875 120.355469 C 214.859375 121.171875 215.488281 122.015625 216.074219 122.894531 C 216.664062 123.769531 217.207031 124.675781 217.703125 125.605469 C 218.203125 126.535156 218.652344 127.488281 219.058594 128.464844 C 219.460938 129.4375 219.816406 130.429688 220.125 131.441406 C 220.429688 132.449219 220.6875 133.472656 220.894531 134.507812 C 221.101562 135.542969 221.253906 136.582031 221.359375 137.632812 C 221.460938 138.683594 221.515625 139.734375 221.515625 140.792969 Z M 221.515625 140.792969"/></g><g clip-path="url(#b)"><path fill="#FFF" d="M 295.027344 266.070312 L 79.871094 266.070312 C 75.925781 266.070312 72.699219 262.847656 72.699219 258.910156 C 72.699219 254.972656 75.925781 251.753906 79.871094 251.753906 L 295.027344 251.753906 C 298.96875 251.753906 302.199219 254.972656 302.199219 258.910156 C 302.199219 262.847656 298.96875 266.070312 295.027344 266.070312 Z M 295.027344 266.070312"/></g><path fill="#FFF" d="M 243.03125 223.117188 C 243.03125 199.492188 223.664062 180.164062 200 180.164062 L 180.277344 180.164062 C 156.609375 180.164062 137.246094 199.492188 137.246094 223.117188 L 137.246094 244.59375 L 243.03125 244.59375 Z M 243.03125 223.117188"/><path fill="#FFF" d="M 282.476562 151.707031 C 282.476562 152.652344 282.429688 153.59375 282.335938 154.53125 C 282.242188 155.472656 282.105469 156.402344 281.921875 157.328125 C 281.734375 158.253906 281.507812 159.167969 281.230469 160.074219 C 280.957031 160.976562 280.640625 161.863281 280.277344 162.734375 C 279.917969 163.605469 279.511719 164.460938 279.066406 165.292969 C 278.621094 166.125 278.136719 166.933594 277.609375 167.714844 C 277.085938 168.5 276.523438 169.257812 275.921875 169.988281 C 275.324219 170.71875 274.6875 171.414062 274.019531 172.082031 C 273.351562 172.75 272.652344 173.382812 271.921875 173.980469 C 271.191406 174.582031 270.433594 175.140625 269.644531 175.667969 C 268.859375 176.191406 268.050781 176.675781 267.214844 177.121094 C 266.382812 177.566406 265.527344 177.96875 264.65625 178.328125 C 263.78125 178.691406 262.894531 179.007812 261.988281 179.28125 C 261.082031 179.554688 260.167969 179.785156 259.238281 179.96875 C 258.3125 180.152344 257.378906 180.292969 256.4375 180.382812 C 255.496094 180.476562 254.554688 180.523438 253.609375 180.523438 C 252.664062 180.523438 251.71875 180.476562 250.777344 180.382812 C 249.839844 180.292969 248.902344 180.152344 247.976562 179.96875 C 247.050781 179.785156 246.132812 179.554688 245.230469 179.28125 C 244.324219 179.007812 243.433594 178.691406 242.5625 178.328125 C 241.6875 177.96875 240.835938 177.566406 240 177.121094 C 239.167969 176.675781 238.355469 176.191406 237.570312 175.667969 C 236.785156 175.140625 236.027344 174.582031 235.296875 173.980469 C 234.566406 173.382812 233.863281 172.75 233.195312 172.082031 C 232.527344 171.414062 231.894531 170.71875 231.292969 169.988281 C 230.695312 169.257812 230.132812 168.5 229.605469 167.714844 C 229.082031 166.933594 228.597656 166.125 228.148438 165.292969 C 227.703125 164.460938 227.300781 163.605469 226.9375 162.734375 C 226.578125 161.863281 226.257812 160.976562 225.984375 160.074219 C 225.710938 159.167969 225.480469 158.253906 225.296875 157.328125 C 225.113281 156.402344 224.972656 155.472656 224.878906 154.53125 C 224.789062 153.59375 224.742188 152.652344 224.742188 151.707031 C 224.742188 150.765625 224.789062 149.824219 224.878906 148.882812 C 224.972656 147.945312 225.113281 147.011719 225.296875 146.085938 C 225.480469 145.160156 225.710938 144.246094 225.984375 143.34375 C 226.257812 142.441406 226.578125 141.554688 226.9375 140.683594 C 227.300781 139.808594 227.703125 138.957031 228.148438 138.125 C 228.597656 137.292969 229.082031 136.484375 229.605469 135.699219 C 230.132812 134.914062 230.695312 134.160156 231.292969 133.429688 C 231.894531 132.699219 232.527344 132 233.195312 131.332031 C 233.863281 130.667969 234.566406 130.035156 235.296875 129.433594 C 236.027344 128.835938 236.785156 128.273438 237.570312 127.75 C 238.355469 127.226562 239.167969 126.742188 240 126.296875 C 240.835938 125.851562 241.6875 125.449219 242.5625 125.085938 C 243.433594 124.726562 244.324219 124.410156 245.230469 124.136719 C 246.132812 123.859375 247.050781 123.632812 247.976562 123.449219 C 248.902344 123.265625 249.839844 123.125 250.777344 123.03125 C 251.71875 122.941406 252.664062 122.894531 253.609375 122.894531 C 254.554688 122.894531 255.496094 122.941406 256.4375 123.03125 C 257.378906 123.125 258.3125 123.265625 259.238281 123.449219 C 260.167969 123.632812 261.082031 123.859375 261.988281 124.136719 C 262.894531 124.410156 263.78125 124.726562 264.65625 125.085938 C 265.527344 125.449219 266.382812 125.851562 267.214844 126.296875 C 268.050781 126.742188 268.859375 127.226562 269.644531 127.75 C 270.433594 128.273438 271.191406 128.835938 271.921875 129.433594 C 272.652344 130.035156 273.351562 130.667969 274.019531 131.332031 C 274.6875 132 275.324219 132.699219 275.921875 133.429688 C 276.523438 134.160156 277.085938 134.914062 277.609375 135.699219 C 278.136719 136.484375 278.621094 137.292969 279.066406 138.125 C 279.511719 138.957031 279.917969 139.808594 280.277344 140.683594 C 280.640625 141.554688 280.957031 142.441406 281.230469 143.34375 C 281.507812 144.246094 281.734375 145.160156 281.921875 146.085938 C 282.105469 147.011719 282.242188 147.945312 282.335938 148.882812 C 282.429688 149.824219 282.476562 150.765625 282.476562 151.707031 Z M 282.476562 151.707031"/><g clip-path="url(#c)"><path fill="#FFF" d="M 263.289062 186.964844 L 245.71875 186.964844 C 243.03125 186.964844 241.59375 190.007812 243.03125 192.15625 C 247.691406 198.957031 252.175781 207.1875 252.175781 215.957031 L 252.175781 244.59375 L 294.847656 244.59375 C 298.792969 244.59375 302.019531 241.371094 302.019531 237.433594 L 302.019531 225.445312 C 301.839844 204.324219 284.449219 186.964844 263.289062 186.964844 Z M 263.289062 186.964844"/></g><path fill="#FFF" d="M 148.003906 151.707031 C 148.003906 152.652344 147.957031 153.59375 147.863281 154.53125 C 147.769531 155.472656 147.632812 156.402344 147.449219 157.328125 C 147.261719 158.253906 147.035156 159.167969 146.757812 160.074219 C 146.484375 160.976562 146.167969 161.863281 145.804688 162.734375 C 145.445312 163.605469 145.039062 164.460938 144.59375 165.292969 C 144.148438 166.125 143.664062 166.933594 143.136719 167.714844 C 142.613281 168.5 142.050781 169.257812 141.449219 169.988281 C 140.851562 170.71875 140.214844 171.414062 139.546875 172.082031 C 138.878906 172.75 138.179688 173.382812 137.449219 173.980469 C 136.71875 174.582031 135.960938 175.140625 135.171875 175.667969 C 134.386719 176.191406 133.578125 176.675781 132.742188 177.121094 C 131.910156 177.566406 131.054688 177.96875 130.183594 178.328125 C 129.308594 178.691406 128.421875 179.007812 127.515625 179.28125 C 126.609375 179.554688 125.695312 179.785156 124.765625 179.96875 C 123.839844 180.152344 122.90625 180.292969 121.964844 180.382812 C 121.023438 180.476562 120.082031 180.523438 119.136719 180.523438 C 118.191406 180.523438 117.246094 180.476562 116.304688 180.382812 C 115.367188 180.292969 114.429688 180.152344 113.503906 179.96875 C 112.578125 179.785156 111.660156 179.554688 110.757812 179.28125 C 109.851562 179.007812 108.960938 178.691406 108.089844 178.328125 C 107.214844 177.96875 106.363281 177.566406 105.527344 177.121094 C 104.695312 176.675781 103.882812 176.191406 103.097656 175.667969 C 102.3125 175.140625 101.554688 174.582031 100.824219 173.980469 C 100.09375 173.382812 99.390625 172.75 98.722656 172.082031 C 98.054688 171.414062 97.421875 170.71875 96.820312 169.988281 C 96.222656 169.257812 95.660156 168.5 95.132812 167.714844 C 94.609375 166.933594 94.125 166.125 93.675781 165.292969 C 93.230469 164.460938 92.828125 163.605469 92.464844 162.734375 C 92.105469 161.863281 91.785156 160.976562 91.511719 160.074219 C 91.238281 159.167969 91.007812 158.253906 90.824219 157.328125 C 90.640625 156.402344 90.5 155.472656 90.40625 154.53125 C 90.316406 153.59375 90.269531 152.652344 90.269531 151.707031 C 90.269531 150.765625 90.316406 149.824219 90.40625 148.882812 C 90.5 147.945312 90.640625 147.011719 90.824219 146.085938 C 91.007812 145.160156 91.238281 144.246094 91.511719 143.34375 C 91.785156 142.441406 92.105469 141.554688 92.464844 140.683594 C 92.828125 139.808594 93.230469 138.957031 93.675781 138.125 C 94.125 137.292969 94.609375 136.484375 95.132812 135.699219 C 95.660156 134.914062 96.222656 134.160156 96.820312 133.429688 C 97.421875 132.699219 98.054688 132 98.722656 131.332031 C 99.390625 130.667969 100.09375 130.035156 100.824219 129.433594 C 101.554688 128.835938 102.3125 128.273438 103.097656 127.75 C 103.882812 127.226562 104.695312 126.742188 105.527344 126.296875 C 106.363281 125.851562 107.214844 125.449219 108.089844 125.085938 C 108.960938 124.726562 109.851562 124.410156 110.757812 124.136719 C 111.660156 123.859375 112.578125 123.632812 113.503906 123.449219 C 114.429688 123.265625 115.367188 123.125 116.304688 123.03125 C 117.246094 122.941406 118.191406 122.894531 119.136719 122.894531 C 120.082031 122.894531 121.023438 122.941406 121.964844 123.03125 C 122.90625 123.125 123.839844 123.265625 124.765625 123.449219 C 125.695312 123.632812 126.609375 123.859375 127.515625 124.136719 C 128.421875 124.410156 129.308594 124.726562 130.183594 125.085938 C 131.054688 125.449219 131.910156 125.851562 132.742188 126.296875 C 133.578125 126.742188 134.386719 127.226562 135.171875 127.75 C 135.960938 128.273438 136.71875 128.835938 137.449219 129.433594 C 138.179688 130.035156 138.878906 130.667969 139.546875 131.332031 C 140.214844 132 140.851562 132.699219 141.449219 133.429688 C 142.050781 134.160156 142.613281 134.914062 143.136719 135.699219 C 143.664062 136.484375 144.148438 137.292969 144.59375 138.125 C 145.039062 138.957031 145.445312 139.808594 145.804688 140.683594 C 146.167969 141.554688 146.484375 142.441406 146.757812 143.34375 C 147.035156 144.246094 147.261719 145.160156 147.449219 146.085938 C 147.632812 147.011719 147.769531 147.945312 147.863281 148.882812 C 147.957031 149.824219 148.003906 150.765625 148.003906 151.707031 Z M 148.003906 151.707031"/><g clip-path="url(#d)"><path fill="#FFF" d="M 128.28125 215.957031 C 128.28125 207.546875 132.582031 199.492188 136.886719 192.871094 C 138.320312 190.722656 136.886719 187.679688 134.375 187.324219 C 132.582031 187.144531 130.789062 186.964844 128.816406 186.964844 L 111.246094 186.964844 C 90.089844 186.964844 72.699219 204.324219 72.699219 225.445312 L 72.699219 237.433594 C 72.699219 241.371094 75.925781 244.59375 79.871094 244.59375 L 128.28125 244.59375 Z M 128.28125 215.957031"/></g></svg>