<svg xmlns="http://www.w3.org/2000/svg" width="375" viewBox="0 0 375 375" height="375" version="1.0"><defs><clipPath id="a"><path d="M 99.300781 94 L 272 94 L 272 281.214844 L 99.300781 281.214844 Z M 99.300781 94"/></clipPath></defs><path fill="#FFF" d="M-37.5 -37.5H412.5V412.5H-37.5z"/><path fill="#FFF" d="M-37.5 -37.5H412.5V412.5H-37.5z"/><path fill="#D7354A" d="M-37.5 -37.5H412.5V412.5H-37.5z"/><path fill="#FFF" d="M 216.820312 163.863281 C 220.160156 167.171875 225.542969 167.144531 228.84375 163.808594 C 232.152344 160.472656 232.125 155.085938 228.789062 151.777344 C 208.835938 131.996094 176.519531 132.140625 156.75 152.105469 C 136.980469 172.074219 137.128906 204.410156 157.078125 224.191406 C 167.058594 234.082031 180.121094 238.992188 193.167969 238.933594 C 206.214844 238.875 219.238281 233.84375 229.121094 223.863281 C 232.429688 220.527344 232.402344 215.140625 229.066406 211.832031 C 225.734375 208.527344 220.351562 208.550781 217.042969 211.886719 C 203.871094 225.1875 182.339844 225.285156 169.050781 212.105469 C 155.761719 198.925781 155.660156 177.382812 168.832031 164.078125 C 182 150.785156 203.527344 150.683594 216.820312 163.863281 Z M 216.820312 163.863281"/><g clip-path="url(#a)"><path fill="#FFF" d="M 271.683594 223.71875 C 271.632812 212.355469 267.160156 201.695312 259.097656 193.695312 C 255.765625 190.394531 255.742188 184.996094 259.039062 181.664062 C 275.535156 165.007812 275.410156 138.019531 258.761719 121.511719 C 222.132812 85.191406 162.796875 85.460938 126.5 122.117188 C 108.917969 139.875 99.292969 163.417969 99.410156 188.414062 C 99.523438 213.414062 109.359375 236.867188 127.105469 254.460938 C 145.421875 272.621094 169.410156 281.632812 193.359375 281.523438 C 217.308594 281.414062 241.214844 272.183594 259.367188 253.855469 C 267.363281 245.785156 271.734375 235.082031 271.683594 223.71875 Z M 247.289062 241.878906 C 217.59375 271.867188 169.046875 272.089844 139.074219 242.375 C 124.558594 227.980469 116.507812 208.789062 116.414062 188.335938 C 116.320312 167.882812 124.195312 148.621094 138.578125 134.089844 C 168.273438 104.101562 216.820312 103.878906 246.792969 133.59375 C 256.785156 143.5 256.859375 159.695312 246.957031 169.6875 C 237.0625 179.679688 237.136719 195.875 247.121094 205.78125 C 251.960938 210.582031 254.644531 216.980469 254.675781 223.796875 C 254.710938 230.613281 252.085938 237.035156 247.289062 241.878906"/></g><path fill="#FFF" d="M 191.699219 201.808594 C 190.792969 201.808594 189.894531 201.71875 189.003906 201.542969 C 188.113281 201.363281 187.25 201.101562 186.414062 200.753906 C 185.574219 200.40625 184.777344 199.980469 184.023438 199.476562 C 183.269531 198.972656 182.574219 198.402344 181.929688 197.757812 C 181.289062 197.117188 180.71875 196.417969 180.214844 195.664062 C 179.710938 194.910156 179.285156 194.113281 178.9375 193.273438 C 178.589844 192.4375 178.328125 191.570312 178.152344 190.679688 C 177.972656 189.792969 177.886719 188.890625 177.886719 187.984375 C 177.886719 187.078125 177.972656 186.179688 178.152344 185.289062 C 178.328125 184.398438 178.589844 183.535156 178.9375 182.695312 C 179.285156 181.855469 179.710938 181.058594 180.214844 180.304688 C 180.71875 179.550781 181.289062 178.851562 181.929688 178.210938 C 182.574219 177.570312 183.269531 176.996094 184.023438 176.492188 C 184.777344 175.988281 185.574219 175.5625 186.414062 175.214844 C 187.25 174.867188 188.113281 174.605469 189.003906 174.429688 C 189.894531 174.25 190.792969 174.164062 191.699219 174.164062 C 192.605469 174.164062 193.503906 174.25 194.394531 174.429688 C 195.285156 174.605469 196.148438 174.867188 196.984375 175.214844 C 197.824219 175.5625 198.621094 175.988281 199.375 176.492188 C 200.128906 176.996094 200.824219 177.570312 201.46875 178.210938 C 202.109375 178.851562 202.679688 179.550781 203.183594 180.304688 C 203.6875 181.058594 204.113281 181.855469 204.460938 182.695312 C 204.808594 183.535156 205.070312 184.398438 205.246094 185.289062 C 205.425781 186.179688 205.511719 187.078125 205.511719 187.984375 C 205.511719 188.890625 205.425781 189.792969 205.246094 190.679688 C 205.070312 191.570312 204.808594 192.4375 204.460938 193.273438 C 204.113281 194.113281 203.6875 194.910156 203.183594 195.664062 C 202.679688 196.417969 202.109375 197.117188 201.46875 197.757812 C 200.824219 198.402344 200.128906 198.972656 199.375 199.476562 C 198.621094 199.980469 197.824219 200.40625 196.984375 200.753906 C 196.148438 201.101562 195.285156 201.363281 194.394531 201.542969 C 193.503906 201.71875 192.605469 201.808594 191.699219 201.808594 Z M 191.699219 201.808594"/></svg>